# xmcd
# 
# Track frame offsets:
#     150
#     16463
#     30566
#     46367
#     64535
#     82008
#     100539
#     118588
#     137242
#     154362
#     177512
# 
# Disc length: 2695
# 
# Revision: 2
# Processed by: cddbd v1.5.2PL0 Copyright (c) Steve Scherf et al.
# Submitted via: BonkEnc v1.0.8
# 
DISCID=8e0a850b
DTITLE=Amy Macdonald - This Is The Life
DYEAR=2007
DGENRE=Pop
TTITLE0=Mr Rock and Roll
TTITLE1=This Is The Life
TTITLE2=Poison Prince
TTITLE3=Youth Of Today
TTITLE4=Run
TTITLE5=Let's Start A Band
TTITLE6=Barrowland Ballroom
TTITLE7=L.A.
TTITLE8=A Wish For Something More
TTITLE9=Footballer's Wife
TTITLE10=The Road To Home
EXTD=
EXTT0=
EXTT1=
EXTT2=
EXTT3=
EXTT4=
EXTT5=
EXTT6=
EXTT7=
EXTT8=
EXTT9=
EXTT10=
PLAYORDER=
